{
	"asset":{
		"version":"2.0",
		"generator":"Created using the official Cinema 4D glTF Exporter 1.000x290161"
	},
	"scenes":[{
		"nodes":[0]
	}],
	"nodes":[{
		"name":"Kelp",
		"translation":[-1.0565565824508668,
		-0.08889807015657425,
		-3.0670995712280275],
		"rotation":[0.0,
		0.0,
		0.0,
		-1.0],
		"scale":[1.0,
		1.0,
		1.0],
		"children":[1,
		2,
		3,
		4,
		5,
		6,
		7,
		8,
		9,
		10,
		11,
		12,
		13,
		14,
		15,
		16]
	},
	{
		"name":"75-150 (Copy).1 (Copy)",
		"translation":[5.451082229614258,
		5.0,
		-2.1128714084625246],
		"rotation":[0.0,
		-0.921013593673706,
		0.0,
		-0.3895304799079895],
		"scale":[0.004999999888241291,
		0.004999999888241291,
		0.004999999888241291],
		"mesh":0
	},
	{
		"name":"75-150 (Copy).1 (Copy)",
		"translation":[2.081928253173828,
		4.99110221862793,
		5.5223002433776859],
		"rotation":[0.027272693812847139,
		0.6645711064338684,
		0.012082552537322045,
		-0.7466293573379517],
		"scale":[0.004999999888241291,
		0.004999999888241291,
		0.004999999888241291],
		"mesh":1
	},
	{
		"name":"75-150 (Copy).1 (Copy)",
		"translation":[-8.354230880737305,
		5.0,
		3.308089256286621],
		"rotation":[0.0,
		-0.7153146862983704,
		0.0,
		0.6988024711608887],
		"scale":[0.004999999888241291,
		0.004999999888241291,
		0.004999999888241291],
		"mesh":2
	},
	{
		"name":"75-150 (Copy).1 (Copy)",
		"translation":[-5.447902202606201,
		5.0,
		-6.143144607543945],
		"rotation":[0.0,
		-0.32771995663642886,
		0.0,
		-0.9447749257087708],
		"scale":[0.004999999888241291,
		0.004999999888241291,
		0.004999999888241291],
		"mesh":3
	},
	{
		"name":"75-150 (Copy).1 (Copy)",
		"translation":[-3.4680638313293459,
		5.392421245574951,
		8.873096466064454],
		"rotation":[-0.009330736473202706,
		-0.9215264916419983,
		-0.04667650908231735,
		0.3853870928287506],
		"scale":[0.004999999888241291,
		0.004999999888241291,
		0.004999999888241291],
		"mesh":4
	},
	{
		"name":"75-150 (Copy).1 (Copy)",
		"translation":[7.249817848205566,
		4.838015556335449,
		11.64440631866455],
		"rotation":[0.018946237862110139,
		0.9891458749771118,
		0.038865018635988238,
		-0.1404312402009964],
		"scale":[0.004999999888241291,
		0.004999999888241291,
		0.004999999888241291],
		"mesh":5
	},
	{
		"name":"75-150 (Copy).1 (Copy)",
		"translation":[-0.1531168818473816,
		4.998723983764648,
		-7.25286340713501],
		"rotation":[0.0019488953985273839,
		-0.9849389791488648,
		-0.011125658638775349,
		-0.17253297567367555],
		"scale":[0.004999999888241291,
		0.004999999888241291,
		0.004999999888241291],
		"mesh":6
	},
	{
		"name":"75-150 (Copy).1 (Copy)",
		"translation":[0.0,
		5.0,
		0.0],
		"rotation":[0.0,
		0.0,
		0.0,
		-1.0],
		"scale":[0.004999999888241291,
		0.004999999888241291,
		0.004999999888241291],
		"mesh":7
	},
	{
		"name":"Stem",
		"translation":[5.451082229614258,
		4.912601947784424,
		-2.1128714084625246],
		"rotation":[0.0,
		-0.921013593673706,
		0.0,
		-0.3895304799079895],
		"scale":[5.0,
		5.0,
		5.0],
		"mesh":8
	},
	{
		"name":"Stem",
		"translation":[0.0,
		4.912601947784424,
		0.0],
		"rotation":[0.0,
		0.0,
		0.0,
		-1.0],
		"scale":[5.0,
		5.0,
		5.0],
		"mesh":9
	},
	{
		"name":"Stem",
		"translation":[-0.15244582295417787,
		4.911348342895508,
		-7.254720211029053],
		"rotation":[0.0019488953985273839,
		-0.9849389791488648,
		-0.011125658638775349,
		-0.17253297567367555],
		"scale":[5.0,
		5.0,
		5.0],
		"mesh":10
	},
	{
		"name":"Stem",
		"translation":[-5.447902202606201,
		4.912601947784424,
		-6.143144607543945],
		"rotation":[0.0,
		-0.32771995663642886,
		0.0,
		-0.9447749257087708],
		"scale":[5.0,
		5.0,
		5.0],
		"mesh":11
	},
	{
		"name":"Stem",
		"translation":[-8.354230880737305,
		4.912601947784424,
		3.308089256286621],
		"rotation":[0.0,
		-0.7153146862983704,
		0.0,
		0.6988024711608887],
		"scale":[5.0,
		5.0,
		5.0],
		"mesh":12
	},
	{
		"name":"Stem",
		"translation":[2.077183246612549,
		4.903859615325928,
		5.524456024169922],
		"rotation":[0.027272693812847139,
		0.6645711064338684,
		0.012082552537322045,
		-0.7466293573379517],
		"scale":[5.0,
		5.0,
		5.0],
		"mesh":13
	},
	{
		"name":"Stem",
		"translation":[7.245588302612305,
		4.750944137573242,
		11.638151168823243],
		"rotation":[0.018946237862110139,
		0.9891458749771118,
		0.038865018635988238,
		-0.1404312402009964],
		"scale":[5.0,
		5.0,
		5.0],
		"mesh":14
	},
	{
		"name":"Stem",
		"translation":[-3.4727113246917726,
		5.305419445037842,
		8.866206169128418],
		"rotation":[-0.009330736473202706,
		-0.9215264916419983,
		-0.04667650908231735,
		0.3853870928287506],
		"scale":[5.0,
		5.0,
		5.0],
		"mesh":15
	}],
	"meshes":[{
		"primitives":[{
			"attributes":{
				"POSITION":1,
				"NORMAL":2
			},
			"indices":0,
			"material":0
		}]
	},
	{
		"primitives":[{
			"attributes":{
				"POSITION":4,
				"NORMAL":5
			},
			"indices":3,
			"material":0
		}]
	},
	{
		"primitives":[{
			"attributes":{
				"POSITION":7,
				"NORMAL":8
			},
			"indices":6,
			"material":0
		}]
	},
	{
		"primitives":[{
			"attributes":{
				"POSITION":10,
				"NORMAL":11
			},
			"indices":9,
			"material":0
		}]
	},
	{
		"primitives":[{
			"attributes":{
				"POSITION":13,
				"NORMAL":14
			},
			"indices":12,
			"material":0
		}]
	},
	{
		"primitives":[{
			"attributes":{
				"POSITION":16,
				"NORMAL":17
			},
			"indices":15,
			"material":0
		}]
	},
	{
		"primitives":[{
			"attributes":{
				"POSITION":19,
				"NORMAL":20
			},
			"indices":18,
			"material":0
		}]
	},
	{
		"primitives":[{
			"attributes":{
				"POSITION":22,
				"NORMAL":23
			},
			"indices":21,
			"material":0
		}]
	},
	{
		"primitives":[{
			"attributes":{
				"POSITION":25,
				"NORMAL":26,
				"TEXCOORD_0":27
			},
			"indices":24,
			"material":0
		}]
	},
	{
		"primitives":[{
			"attributes":{
				"POSITION":29,
				"NORMAL":30,
				"TEXCOORD_0":31
			},
			"indices":28,
			"material":0
		}]
	},
	{
		"primitives":[{
			"attributes":{
				"POSITION":33,
				"NORMAL":34,
				"TEXCOORD_0":35
			},
			"indices":32,
			"material":0
		}]
	},
	{
		"primitives":[{
			"attributes":{
				"POSITION":37,
				"NORMAL":38,
				"TEXCOORD_0":39
			},
			"indices":36,
			"material":0
		}]
	},
	{
		"primitives":[{
			"attributes":{
				"POSITION":41,
				"NORMAL":42,
				"TEXCOORD_0":43
			},
			"indices":40,
			"material":0
		}]
	},
	{
		"primitives":[{
			"attributes":{
				"POSITION":45,
				"NORMAL":46,
				"TEXCOORD_0":47
			},
			"indices":44,
			"material":0
		}]
	},
	{
		"primitives":[{
			"attributes":{
				"POSITION":49,
				"NORMAL":50,
				"TEXCOORD_0":51
			},
			"indices":48,
			"material":0
		}]
	},
	{
		"primitives":[{
			"attributes":{
				"POSITION":53,
				"NORMAL":54,
				"TEXCOORD_0":55
			},
			"indices":52,
			"material":0
		}]
	}],
	"accessors":[{
		"bufferView":0,
		"componentType":5123,
		"type":"SCALAR",
		"count":4416,
		"byteOffset":0,
		"min":[0],
		"max":[4411]
	},
	{
		"bufferView":1,
		"componentType":5126,
		"type":"VEC3",
		"count":4412,
		"byteOffset":0,
		"min":[-210.12600708007813,
		-973.6629638671875,
		-92.3726806640625],
		"max":[206.21774291992188,
		1009.3634033203125,
		102.68970489501953]
	},
	{
		"bufferView":1,
		"componentType":5126,
		"type":"VEC3",
		"count":4412,
		"byteOffset":12,
		"min":[-0.9781562685966492,
		-0.9802500605583191,
		-0.9993438124656677],
		"max":[0.49803128838539126,
		0.9995625615119934,
		0.8591563105583191]
	},
	{
		"bufferView":2,
		"componentType":5123,
		"type":"SCALAR",
		"count":4416,
		"byteOffset":0,
		"min":[0],
		"max":[4411]
	},
	{
		"bufferView":3,
		"componentType":5126,
		"type":"VEC3",
		"count":4412,
		"byteOffset":0,
		"min":[-210.12600708007813,
		-973.6629638671875,
		-92.3726806640625],
		"max":[206.21774291992188,
		1009.3634033203125,
		102.68970489501953]
	},
	{
		"bufferView":3,
		"componentType":5126,
		"type":"VEC3",
		"count":4412,
		"byteOffset":12,
		"min":[-0.9781562685966492,
		-0.9802500605583191,
		-0.9993438124656677],
		"max":[0.49803128838539126,
		0.9995625615119934,
		0.8591563105583191]
	},
	{
		"bufferView":4,
		"componentType":5123,
		"type":"SCALAR",
		"count":4416,
		"byteOffset":0,
		"min":[0],
		"max":[4411]
	},
	{
		"bufferView":5,
		"componentType":5126,
		"type":"VEC3",
		"count":4412,
		"byteOffset":0,
		"min":[-210.12600708007813,
		-973.6629638671875,
		-92.3726806640625],
		"max":[206.21774291992188,
		1009.3634033203125,
		102.68970489501953]
	},
	{
		"bufferView":5,
		"componentType":5126,
		"type":"VEC3",
		"count":4412,
		"byteOffset":12,
		"min":[-0.9781562685966492,
		-0.9802500605583191,
		-0.9993438124656677],
		"max":[0.49803128838539126,
		0.9995625615119934,
		0.8591563105583191]
	},
	{
		"bufferView":6,
		"componentType":5123,
		"type":"SCALAR",
		"count":4416,
		"byteOffset":0,
		"min":[0],
		"max":[4411]
	},
	{
		"bufferView":7,
		"componentType":5126,
		"type":"VEC3",
		"count":4412,
		"byteOffset":0,
		"min":[-210.12600708007813,
		-973.6629638671875,
		-92.3726806640625],
		"max":[206.21774291992188,
		1009.3634033203125,
		102.68970489501953]
	},
	{
		"bufferView":7,
		"componentType":5126,
		"type":"VEC3",
		"count":4412,
		"byteOffset":12,
		"min":[-0.9781562685966492,
		-0.9802500605583191,
		-0.9993438124656677],
		"max":[0.49803128838539126,
		0.9995625615119934,
		0.8591563105583191]
	},
	{
		"bufferView":8,
		"componentType":5123,
		"type":"SCALAR",
		"count":4416,
		"byteOffset":0,
		"min":[0],
		"max":[4411]
	},
	{
		"bufferView":9,
		"componentType":5126,
		"type":"VEC3",
		"count":4412,
		"byteOffset":0,
		"min":[-210.12600708007813,
		-973.6629638671875,
		-92.3726806640625],
		"max":[206.21774291992188,
		1009.3634033203125,
		102.68970489501953]
	},
	{
		"bufferView":9,
		"componentType":5126,
		"type":"VEC3",
		"count":4412,
		"byteOffset":12,
		"min":[-0.9781562685966492,
		-0.9802500605583191,
		-0.9993438124656677],
		"max":[0.49803128838539126,
		0.9995625615119934,
		0.8591563105583191]
	},
	{
		"bufferView":10,
		"componentType":5123,
		"type":"SCALAR",
		"count":4416,
		"byteOffset":0,
		"min":[0],
		"max":[4411]
	},
	{
		"bufferView":11,
		"componentType":5126,
		"type":"VEC3",
		"count":4412,
		"byteOffset":0,
		"min":[-210.12600708007813,
		-973.6629638671875,
		-92.3726806640625],
		"max":[206.21774291992188,
		1009.3634033203125,
		102.68970489501953]
	},
	{
		"bufferView":11,
		"componentType":5126,
		"type":"VEC3",
		"count":4412,
		"byteOffset":12,
		"min":[-0.9781562685966492,
		-0.9802500605583191,
		-0.9993438124656677],
		"max":[0.49803128838539126,
		0.9995625615119934,
		0.8591563105583191]
	},
	{
		"bufferView":12,
		"componentType":5123,
		"type":"SCALAR",
		"count":4416,
		"byteOffset":0,
		"min":[0],
		"max":[4411]
	},
	{
		"bufferView":13,
		"componentType":5126,
		"type":"VEC3",
		"count":4412,
		"byteOffset":0,
		"min":[-210.12600708007813,
		-973.6629638671875,
		-92.3726806640625],
		"max":[206.21774291992188,
		1009.3634033203125,
		102.68970489501953]
	},
	{
		"bufferView":13,
		"componentType":5126,
		"type":"VEC3",
		"count":4412,
		"byteOffset":12,
		"min":[-0.9781562685966492,
		-0.9802500605583191,
		-0.9993438124656677],
		"max":[0.49803128838539126,
		0.9995625615119934,
		0.8591563105583191]
	},
	{
		"bufferView":14,
		"componentType":5123,
		"type":"SCALAR",
		"count":4416,
		"byteOffset":0,
		"min":[0],
		"max":[4411]
	},
	{
		"bufferView":15,
		"componentType":5126,
		"type":"VEC3",
		"count":4412,
		"byteOffset":0,
		"min":[-210.12600708007813,
		-973.6629638671875,
		-92.3726806640625],
		"max":[206.21774291992188,
		1009.3634033203125,
		102.68970489501953]
	},
	{
		"bufferView":15,
		"componentType":5126,
		"type":"VEC3",
		"count":4412,
		"byteOffset":12,
		"min":[-0.9781562685966492,
		-0.9802500605583191,
		-0.9993438124656677],
		"max":[0.49803128838539126,
		0.9995625615119934,
		0.8591563105583191]
	},
	{
		"bufferView":16,
		"componentType":5123,
		"type":"SCALAR",
		"count":1200,
		"byteOffset":0,
		"min":[0],
		"max":[283]
	},
	{
		"bufferView":17,
		"componentType":5126,
		"type":"VEC3",
		"count":284,
		"byteOffset":0,
		"min":[-0.20707499980926515,
		-0.9796540141105652,
		-0.021930400282144548],
		"max":[0.08398459851741791,
		0.9742059707641602,
		0.0054521700367331509]
	},
	{
		"bufferView":17,
		"componentType":5126,
		"type":"VEC3",
		"count":284,
		"byteOffset":12,
		"min":[-1.0,
		-1.0,
		-1.0],
		"max":[1.0,
		1.0,
		1.0]
	},
	{
		"bufferView":17,
		"componentType":5126,
		"type":"VEC2",
		"count":284,
		"byteOffset":24,
		"min":[0.0,
		0.01994997262954712],
		"max":[0.5981509685516357,
		1.0]
	},
	{
		"bufferView":18,
		"componentType":5123,
		"type":"SCALAR",
		"count":1200,
		"byteOffset":0,
		"min":[0],
		"max":[283]
	},
	{
		"bufferView":19,
		"componentType":5126,
		"type":"VEC3",
		"count":284,
		"byteOffset":0,
		"min":[-0.20707499980926515,
		-0.9796540141105652,
		-0.021930400282144548],
		"max":[0.08398459851741791,
		0.9742059707641602,
		0.0054521700367331509]
	},
	{
		"bufferView":19,
		"componentType":5126,
		"type":"VEC3",
		"count":284,
		"byteOffset":12,
		"min":[-1.0,
		-1.0,
		-1.0],
		"max":[1.0,
		1.0,
		1.0]
	},
	{
		"bufferView":19,
		"componentType":5126,
		"type":"VEC2",
		"count":284,
		"byteOffset":24,
		"min":[0.0,
		0.01994997262954712],
		"max":[0.5981509685516357,
		1.0]
	},
	{
		"bufferView":20,
		"componentType":5123,
		"type":"SCALAR",
		"count":1200,
		"byteOffset":0,
		"min":[0],
		"max":[283]
	},
	{
		"bufferView":21,
		"componentType":5126,
		"type":"VEC3",
		"count":284,
		"byteOffset":0,
		"min":[-0.20707499980926515,
		-0.9796540141105652,
		-0.021930400282144548],
		"max":[0.08398459851741791,
		0.9742059707641602,
		0.0054521700367331509]
	},
	{
		"bufferView":21,
		"componentType":5126,
		"type":"VEC3",
		"count":284,
		"byteOffset":12,
		"min":[-1.0,
		-1.0,
		-1.0],
		"max":[1.0,
		1.0,
		1.0]
	},
	{
		"bufferView":21,
		"componentType":5126,
		"type":"VEC2",
		"count":284,
		"byteOffset":24,
		"min":[0.0,
		0.01994997262954712],
		"max":[0.5981509685516357,
		1.0]
	},
	{
		"bufferView":22,
		"componentType":5123,
		"type":"SCALAR",
		"count":1200,
		"byteOffset":0,
		"min":[0],
		"max":[283]
	},
	{
		"bufferView":23,
		"componentType":5126,
		"type":"VEC3",
		"count":284,
		"byteOffset":0,
		"min":[-0.20707499980926515,
		-0.9796540141105652,
		-0.021930400282144548],
		"max":[0.08398459851741791,
		0.9742059707641602,
		0.0054521700367331509]
	},
	{
		"bufferView":23,
		"componentType":5126,
		"type":"VEC3",
		"count":284,
		"byteOffset":12,
		"min":[-1.0,
		-1.0,
		-1.0],
		"max":[1.0,
		1.0,
		1.0]
	},
	{
		"bufferView":23,
		"componentType":5126,
		"type":"VEC2",
		"count":284,
		"byteOffset":24,
		"min":[0.0,
		0.01994997262954712],
		"max":[0.5981509685516357,
		1.0]
	},
	{
		"bufferView":24,
		"componentType":5123,
		"type":"SCALAR",
		"count":1200,
		"byteOffset":0,
		"min":[0],
		"max":[283]
	},
	{
		"bufferView":25,
		"componentType":5126,
		"type":"VEC3",
		"count":284,
		"byteOffset":0,
		"min":[-0.20707499980926515,
		-0.9796540141105652,
		-0.021930400282144548],
		"max":[0.08398459851741791,
		0.9742059707641602,
		0.0054521700367331509]
	},
	{
		"bufferView":25,
		"componentType":5126,
		"type":"VEC3",
		"count":284,
		"byteOffset":12,
		"min":[-1.0,
		-1.0,
		-1.0],
		"max":[1.0,
		1.0,
		1.0]
	},
	{
		"bufferView":25,
		"componentType":5126,
		"type":"VEC2",
		"count":284,
		"byteOffset":24,
		"min":[0.0,
		0.01994997262954712],
		"max":[0.5981509685516357,
		1.0]
	},
	{
		"bufferView":26,
		"componentType":5123,
		"type":"SCALAR",
		"count":1200,
		"byteOffset":0,
		"min":[0],
		"max":[283]
	},
	{
		"bufferView":27,
		"componentType":5126,
		"type":"VEC3",
		"count":284,
		"byteOffset":0,
		"min":[-0.20707499980926515,
		-0.9796540141105652,
		-0.021930400282144548],
		"max":[0.08398459851741791,
		0.9742059707641602,
		0.0054521700367331509]
	},
	{
		"bufferView":27,
		"componentType":5126,
		"type":"VEC3",
		"count":284,
		"byteOffset":12,
		"min":[-1.0,
		-1.0,
		-1.0],
		"max":[1.0,
		1.0,
		1.0]
	},
	{
		"bufferView":27,
		"componentType":5126,
		"type":"VEC2",
		"count":284,
		"byteOffset":24,
		"min":[0.0,
		0.01994997262954712],
		"max":[0.5981509685516357,
		1.0]
	},
	{
		"bufferView":28,
		"componentType":5123,
		"type":"SCALAR",
		"count":1200,
		"byteOffset":0,
		"min":[0],
		"max":[283]
	},
	{
		"bufferView":29,
		"componentType":5126,
		"type":"VEC3",
		"count":284,
		"byteOffset":0,
		"min":[-0.20707499980926515,
		-0.9796540141105652,
		-0.021930400282144548],
		"max":[0.08398459851741791,
		0.9742059707641602,
		0.0054521700367331509]
	},
	{
		"bufferView":29,
		"componentType":5126,
		"type":"VEC3",
		"count":284,
		"byteOffset":12,
		"min":[-1.0,
		-1.0,
		-1.0],
		"max":[1.0,
		1.0,
		1.0]
	},
	{
		"bufferView":29,
		"componentType":5126,
		"type":"VEC2",
		"count":284,
		"byteOffset":24,
		"min":[0.0,
		0.01994997262954712],
		"max":[0.5981509685516357,
		1.0]
	},
	{
		"bufferView":30,
		"componentType":5123,
		"type":"SCALAR",
		"count":1200,
		"byteOffset":0,
		"min":[0],
		"max":[283]
	},
	{
		"bufferView":31,
		"componentType":5126,
		"type":"VEC3",
		"count":284,
		"byteOffset":0,
		"min":[-0.20707499980926515,
		-0.9796540141105652,
		-0.021930400282144548],
		"max":[0.08398459851741791,
		0.9742059707641602,
		0.0054521700367331509]
	},
	{
		"bufferView":31,
		"componentType":5126,
		"type":"VEC3",
		"count":284,
		"byteOffset":12,
		"min":[-1.0,
		-1.0,
		-1.0],
		"max":[1.0,
		1.0,
		1.0]
	},
	{
		"bufferView":31,
		"componentType":5126,
		"type":"VEC2",
		"count":284,
		"byteOffset":24,
		"min":[0.0,
		0.01994997262954712],
		"max":[0.5981509685516357,
		1.0]
	}],
	"bufferViews":[{
		"buffer":0,
		"byteOffset":0,
		"byteLength":8832,
		"target":34963
	},
	{
		"buffer":0,
		"byteOffset":8832,
		"byteLength":105888,
		"target":34962,
		"byteStride":24
	},
	{
		"buffer":1,
		"byteOffset":0,
		"byteLength":8832,
		"target":34963
	},
	{
		"buffer":1,
		"byteOffset":8832,
		"byteLength":105888,
		"target":34962,
		"byteStride":24
	},
	{
		"buffer":2,
		"byteOffset":0,
		"byteLength":8832,
		"target":34963
	},
	{
		"buffer":2,
		"byteOffset":8832,
		"byteLength":105888,
		"target":34962,
		"byteStride":24
	},
	{
		"buffer":3,
		"byteOffset":0,
		"byteLength":8832,
		"target":34963
	},
	{
		"buffer":3,
		"byteOffset":8832,
		"byteLength":105888,
		"target":34962,
		"byteStride":24
	},
	{
		"buffer":4,
		"byteOffset":0,
		"byteLength":8832,
		"target":34963
	},
	{
		"buffer":4,
		"byteOffset":8832,
		"byteLength":105888,
		"target":34962,
		"byteStride":24
	},
	{
		"buffer":5,
		"byteOffset":0,
		"byteLength":8832,
		"target":34963
	},
	{
		"buffer":5,
		"byteOffset":8832,
		"byteLength":105888,
		"target":34962,
		"byteStride":24
	},
	{
		"buffer":6,
		"byteOffset":0,
		"byteLength":8832,
		"target":34963
	},
	{
		"buffer":6,
		"byteOffset":8832,
		"byteLength":105888,
		"target":34962,
		"byteStride":24
	},
	{
		"buffer":7,
		"byteOffset":0,
		"byteLength":8832,
		"target":34963
	},
	{
		"buffer":7,
		"byteOffset":8832,
		"byteLength":105888,
		"target":34962,
		"byteStride":24
	},
	{
		"buffer":8,
		"byteOffset":0,
		"byteLength":2400,
		"target":34963
	},
	{
		"buffer":8,
		"byteOffset":2400,
		"byteLength":9088,
		"target":34962,
		"byteStride":32
	},
	{
		"buffer":9,
		"byteOffset":0,
		"byteLength":2400,
		"target":34963
	},
	{
		"buffer":9,
		"byteOffset":2400,
		"byteLength":9088,
		"target":34962,
		"byteStride":32
	},
	{
		"buffer":10,
		"byteOffset":0,
		"byteLength":2400,
		"target":34963
	},
	{
		"buffer":10,
		"byteOffset":2400,
		"byteLength":9088,
		"target":34962,
		"byteStride":32
	},
	{
		"buffer":11,
		"byteOffset":0,
		"byteLength":2400,
		"target":34963
	},
	{
		"buffer":11,
		"byteOffset":2400,
		"byteLength":9088,
		"target":34962,
		"byteStride":32
	},
	{
		"buffer":12,
		"byteOffset":0,
		"byteLength":2400,
		"target":34963
	},
	{
		"buffer":12,
		"byteOffset":2400,
		"byteLength":9088,
		"target":34962,
		"byteStride":32
	},
	{
		"buffer":13,
		"byteOffset":0,
		"byteLength":2400,
		"target":34963
	},
	{
		"buffer":13,
		"byteOffset":2400,
		"byteLength":9088,
		"target":34962,
		"byteStride":32
	},
	{
		"buffer":14,
		"byteOffset":0,
		"byteLength":2400,
		"target":34963
	},
	{
		"buffer":14,
		"byteOffset":2400,
		"byteLength":9088,
		"target":34962,
		"byteStride":32
	},
	{
		"buffer":15,
		"byteOffset":0,
		"byteLength":2400,
		"target":34963
	},
	{
		"buffer":15,
		"byteOffset":2400,
		"byteLength":9088,
		"target":34962,
		"byteStride":32
	}],
	"materials":[{
		"pbrMetallicRoughness":{
			"baseColorTexture":{
				"index":0
			},
			"baseColorFactor":[1.0,
			1.0,
			1.0,
			1.0],
			"metallicFactor":0.0,
			"roughnessFactor":0.5
		},
		"emissiveFactor":[0.0,
		0.0,
		0.0],
		"alphaMode":"OPAQUE",
		"doubleSided":true,
		"name":"Mat"
	}],
	"buffers":[{
		"uri":"data:application/octet-stream;base64,",
		"byteLength":114720
	},
	{
		"uri":"data:application/octet-stream;base64,",
		"byteLength":114720
	},
	{
		"uri":"data:application/octet-stream;base64,",
		"byteLength":114720
	},
	{
		"uri":"data:application/octet-stream;base64,",
		"byteLength":114720
	},
	{
		"uri":"data:application/octet-stream;base64,",
		"byteLength":114720
	},
	{
		"uri":"data:application/octet-stream;base64,",
		"byteLength":114720
	},
	{
		"uri":"data:application/octet-stream;base64,",
		"byteLength":114720
	},
	{
		"uri":"data:application/octet-stream;base64,",
		"byteLength":114720
	},
	{
		"uri":"data:application/octet-stream;base64,",
		"byteLength":11488
	},
	{
		"uri":"data:application/octet-stream;base64,",
		"byteLength":11488
	},
	{
		"uri":"data:application/octet-stream;base64,",
		"byteLength":11488
	},
	{
		"uri":"data:application/octet-stream;base64,",
		"byteLength":11488
	},
	{
		"uri":"data:application/octet-stream;base64,",
		"byteLength":11488
	},
	{
		"uri":"data:application/octet-stream;base64,",
		"byteLength":11488
	},
	{
		"uri":"data:application/octet-stream;base64,",
		"byteLength":11488
	},
	{
		"uri":"data:application/octet-stream;base64,",
		"byteLength":11488
	}],
	"images":[{
		"uri":"data:image/jpeg;base64,"
	}],
	"samplers":[{
		"magFilter":9729,
		"minFilter":9729,
		"wrapS":10497,
		"wrapT":10497
	}],
	"textures":[{
		"sampler":0,
		"source":0
	}]
}